{"title":"April Showers 2009 [704x384] mkv","uid":6704215,"size":1284622969,"categoryP":"video","categoryS":"movies","magnet":"?xt=urn:btih:0d8910288a8cd732116d805b9217c6df53d0eb1b&amp;dn=April+Showers+2009+%5B704x384%5D+mkv&amp;tr=udp%3A%2F%2Ftracker.openbittorrent.com%3A80&amp;tr=udp%3A%2F%2Fopen.demonii.com%3A1337&amp;tr=udp%3A%2F%2Ftracker.coppersurfer.tk%3A6969&amp;tr=udp%3A%2F%2Fexodus.desync.com%3A6969","seeders":0,"leechers":1,"uploader":"Gh057man","files":1,"time":1317103373,"description":"April Showers (USA 2009) Anna Adams, Dominic Arellano, Mark Arnold, Tom Arnold  \n\nA look inside a tragedy through the eyes of a survivor. Based on actual events, April Showers is about picking up the pieces in the direct aftermath of school violence. Set in a middle class suburban neighborhood, April Showers focuses on the lives of a handful of teachers and students as they attempt to make sense of a world that has just been turned upside down by one of their own. With the community and an entire nation caught up in the 'story', the students of Jefferson High must turn to one another for answers. In the wake atrocity, the rifts caused by misinformation and a frenzied media prove difficult to overcome. Lost and lonely under the international spotlight, one young man navigates his way through his almost indiscernible home. From quaint suburban town to battlefield turned media circus, Jefferson High provides the backdrop for Sean's struggle to cope with the loss of his friend April. \nApril Wade (producer)\n\nFormat                           : Matroska\nFormat version                   : Version 1\nFile size                        : 1.20 GiB\nDuration                         : 1h 43mn\nOverall bit rate                 : 1 661 Kbps\nWriting application              : VirtualDubMod 1.5.10.2 (build 2542/release)\nWriting library                  : libebml-0.7.5 &amp; libmatroska-0.7.7\n\nVideo\nID                               : 1\nFormat                           : MPEG-4 Visual\nFormat profile                   : Advanced Simple@L5\nFormat settings, BVOP            : Yes\nFormat settings, QPel            : No\nFormat settings, GMC             : No warppoints\nFormat settings, Matrix          : Default (MPEG)\nCodec ID                         : XVID\nCodec ID/Hint                    : XviD\nDuration                         : 1h 43mn\nBit rate                         : 1 404 Kbps\nWidth                            : 704 pixels\nHeight                           : 384 pixels\nDisplay aspect ratio             : 16:9\nFrame rate                       : 23.976 fps\nColor space                      : YUV\nChroma subsampling               : 4:2:0\nBit depth                        : 8 bits\nScan type                        : Progressive\nCompression mode                 : Lossy\nBits/(Pixel*Frame)               : 0.217\nStream size                      : 1.01 GiB (85%)\nWriting library                  : XviD 1.2.0.dev47 (UTC 2006-11-01)\nLanguage                         : English\n\nAudio\nID                               : 2\nFormat                           : AC-3\nFormat/Info                      : Audio Coding 3\nMode extension                   : CM (complete main)\nCodec ID                         : 2000\nDuration                         : 1h 43mn\nBit rate mode                    : Constant\nBit rate                         : 224 Kbps\nChannel(s)                       : 2 channels\nChannel positions                : Front: L R\nSampling rate                    : 48.0 KHz\nBit depth                        : 16 bits\nCompression mode                 : Lossy\nStream size                      : 165 MiB (13%)\nLanguage                         : English","torrent":{"xt":"urn:btih:0d8910288a8cd732116d805b9217c6df53d0eb1b","amp;dn":"April+Showers+2009+%5B704x384%5D+mkv","amp;tr":["udp%3A%2F%2Ftracker.openbittorrent.com%3A80","udp%3A%2F%2Fopen.demonii.com%3A1337","udp%3A%2F%2Ftracker.coppersurfer.tk%3A6969","udp%3A%2F%2Fexodus.desync.com%3A6969"],"infoHash":"0d8910288a8cd732116d805b9217c6df53d0eb1b","infoHashBuffer":{"type":"Buffer","data":[13,137,16,40,138,140,215,50,17,109,128,91,146,23,198,223,83,208,235,27]},"announce":[],"urlList":[]}}